<?xml version="1.0" encoding="UTF-8"?>
<svg width="178px" height="146px" viewBox="0 0 178 146" version="1.1" xmlns="http://www.w3.org/2000/svg" xmlns:xlink="http://www.w3.org/1999/xlink">
    <!-- Generator: Sketch 60 (88103) - https://sketch.com -->
    <title>Regulamento</title>
    <desc>Created with Sketch.</desc>
    <defs>
        <linearGradient x1="50%" y1="0%" x2="50%" y2="100%" id="linearGradient-1">
            <stop stop-color="#00F5FF" offset="0%"></stop>
            <stop stop-color="#7159C1" offset="100%"></stop>
        </linearGradient>
    </defs>
    <g id="New" stroke="none" stroke-width="1" fill="none" fill-rule="evenodd">
        <g id="splash" transform="translate(-646.000000, -304.000000)" fill="url(#linearGradient-1)" fill-rule="nonzero">
            <g id="Regulamento" transform="translate(646.000000, 304.000000)">
                <path d="M162.765,137.8 L162.765,123.4 C162.711889,113.505959 155.961895,104.905181 146.364,102.502 C144.501353,102.042901 142.899938,100.857401 141.916998,99.2099624 C140.934058,97.5625238 140.651372,95.5902078 141.132,93.733 C142.179643,89.8767949 146.128289,87.5751995 150,88.564 C165.99818,92.5655725 177.248434,106.903163 177.33,123.394 L177.33,137.794 C177.33,141.819327 174.066827,145.0825 170.0415,145.0825 C166.016173,145.0825 162.753,141.819327 162.753,137.794 L162.765,137.8 Z M116.619,137.8 L116.619,123.4 C116.52819,111.404124 106.748086,101.743437 94.752,101.8 L36.444,101.8 C24.4479141,101.743437 14.6678097,111.404124 14.577,123.4 L14.577,137.8 C14.5666903,139.72148 13.7928642,141.560026 12.4260184,142.910553 C11.0591726,144.26108 9.21146492,145.012769 7.29,145.000181 C5.36801717,145.013569 3.51953757,144.262234 2.1520415,142.91162 C0.784545423,141.561007 0.0103070157,139.722003 0,137.8 L0,123.4 C0.148609266,103.406109 16.4497898,87.3035273 36.444,87.3995688 L94.755,87.3995688 C114.74921,87.3035273 131.050391,103.406109 131.199,123.4 L131.199,137.8 C131.118499,141.767706 127.879023,144.942123 123.9105,144.942123 C119.941977,144.942123 116.702501,141.767706 116.622,137.8 L116.619,137.8 Z M29.154,37 C29.154,16.8692209 45.4732209,0.55 65.604,0.55 C85.7347791,0.55 102.054,16.8692209 102.054,37 C102.054,57.1307791 85.7347791,73.45 65.604,73.45 C45.4732209,73.45 29.154,57.1307791 29.154,37 Z M43.731,37 C43.6227137,45.86787 48.8812319,53.9229508 57.0431983,57.391834 C65.2051646,60.8607172 74.6540057,59.0563498 80.9634053,52.823989 C87.272805,46.5916283 89.1931126,37.1656663 85.8247586,28.9617017 C82.4564046,20.757737 74.4665311,15.4006611 65.598,15.399692 C53.5992171,15.336822 43.8152284,25.0013464 43.731,37 Z M111.921,66.73 C111.449651,64.8714378 111.739097,62.9016356 112.725177,61.2572301 C113.711257,59.6128246 115.312512,58.429659 117.174,57.97 C126.821239,55.619582 133.610641,46.9774356 133.610641,37.048 C133.610641,27.1185644 126.821239,18.476418 117.174,16.126 C115.311743,15.6657586 113.71014,14.4814045 112.724515,12.8356927 C111.738891,11.1899809 111.450743,9.21899205 111.924,7.36 C112.963872,3.49621064 116.913518,1.18334293 120.792,2.167 C136.871781,6.08716922 148.187286,20.4927577 148.187286,37.0435 C148.187286,53.5942423 136.871781,67.9998308 120.792,71.92 C120.198237,72.0673082 119.588763,72.1420272 118.977,72.1420272 C115.66812,72.1509984 112.769973,69.9259214 111.924,66.727 L111.921,66.73 Z" id="Union_140"></path>
            </g>
        </g>
    </g>
</svg>