<?xml version="1.0" encoding="UTF-8"?>
<svg width="49px" height="32px" viewBox="0 0 49 32" version="1.1" xmlns="http://www.w3.org/2000/svg" xmlns:xlink="http://www.w3.org/1999/xlink">
    <!-- Generator: sketchtool 57.1 (101010) - https://sketch.com -->
    <title>711E576C-D98E-43A0-B545-768487E31BA5</title>
    <desc>Created with sketchtool.</desc>
    <g id="App" stroke="none" stroke-width="1" fill="none" fill-rule="evenodd">
        <g id="Workshops" transform="translate(-30.000000, -58.000000)" fill-rule="nonzero">
            <g id="Group" transform="translate(30.000000, 58.000000)">
                <path d="M5.72,14.4096443 L3.96,14.4096443 C3.86,14.4096443 3.78,14.4896443 3.78,14.5896443 L3.78,19.7696443 C3.78,19.8696443 3.7,19.9496443 3.6,19.9496443 L0.18,19.9496443 C0.08,19.9496443 5.68434189e-14,19.8696443 5.68434189e-14,19.7696443 L5.68434189e-14,4.42964426 C5.68434189e-14,4.32964426 0.08,4.24964426 0.18,4.24964426 L6.18,4.24964426 C8.04,4.24964426 9.5,4.66964426 10.54,5.48964426 C11.58,6.30964426 12.12,7.48964426 12.12,8.98964426 C12.16,9.92964426 11.92,10.8696443 11.46,11.7096443 C11,12.4296443 10.34,12.9896443 9.58,13.3696443 C9.48,13.4296443 9.44,13.5496443 9.48,13.6496443 C9.48,13.6496443 9.48,13.6496443 9.48,13.6496443 L12.66,19.7896443 C12.7,19.8496443 12.66,19.9296443 12.6,19.9496443 C12.58,19.9496443 12.56,19.9696443 12.54,19.9696443 L8.7,19.9696443 C8.64,19.9696443 8.56,19.9296443 8.54,19.8696443 L5.88,14.5096443 C5.86,14.4496443 5.8,14.4096443 5.72,14.4096443 Z M3.78,11.3096443 C3.78,11.4096443 3.86,11.4896443 3.96,11.4896443 C3.96,11.4896443 3.96,11.4896443 3.96,11.4896443 L6.18,11.4896443 C6.78,11.5296443 7.36,11.3296443 7.8,10.9296443 C8.18,10.4896443 8.38,9.92964426 8.34,9.34964426 C8.38,8.76964426 8.18,8.18964426 7.8,7.74964426 C7.36,7.32964426 6.78,7.12964426 6.18,7.16964426 L3.96,7.16964426 C3.86,7.16964426 3.78,7.24964426 3.78,7.34964426 L3.78,11.3096443 Z" id="Path_8490_1_" fill="#FFFFFF"></path>
                <path d="M21.52,15.7896443 C21.54,15.2896443 21.32,14.8096443 20.94,14.4896443 C20.3,14.0696443 19.6,13.7496443 18.88,13.5296443 C18.06,13.2696443 17.24,12.9496443 16.46,12.5696443 C14.42,11.5696443 13.4,10.1896443 13.4,8.44964426 C13.38,7.60964426 13.66,6.80964426 14.16,6.14964426 C14.72,5.44964426 15.46,4.90964426 16.3,4.58964426 C17.3,4.20964426 18.36,4.00964426 19.42,4.02964426 C20.46,4.00964426 21.5,4.20964426 22.46,4.62964426 C23.3,4.98964426 24.02,5.58964426 24.54,6.34964426 C25.02,7.04964426 25.26,7.88964426 25.28,8.74964426 C25.28,8.82964426 25.22,8.90964426 25.12,8.90964426 C25.12,8.90964426 25.12,8.90964426 25.12,8.90964426 L21.66,8.90964426 C21.58,8.90964426 21.5,8.84964426 21.5,8.74964426 C21.5,8.24964426 21.28,7.74964426 20.92,7.40964426 C20.48,7.02964426 19.9,6.84964426 19.32,6.88964426 C18.76,6.84964426 18.18,7.00964426 17.72,7.32964426 C17.12,7.72964426 16.94,8.54964426 17.36,9.14964426 C17.48,9.30964426 17.62,9.44964426 17.78,9.54964426 C18.48,10.0096443 19.24,10.3496443 20.06,10.5696443 C20.98,10.8496443 21.88,11.2296443 22.74,11.6896443 C24.44,12.6696443 24.64,13.1496443 24.64,14.8696443 C24.64,15.6296443 22.64,18.9496443 22.44,19.1496443 C21.74,19.8096443 21.28,20.1496443 19.48,20.1496443 C18.3,20.1696443 17.12,19.9296443 16.02,19.4696443 C15.08,19.0896443 14.26,18.4296443 13.7,17.5896443 C13.2,16.8096443 12.94,15.9296443 12.92,15.0096443 C12.92,14.9296443 12.98,14.8496443 13.08,14.8496443 C13.08,14.8496443 13.08,14.8496443 13.08,14.8496443 L16.56,14.8496443 C16.64,14.8496443 16.72,14.9096443 16.72,15.0096443 C16.7,15.6496443 16.92,16.2696443 17.36,16.7096443 C17.8,17.1096443 18.5,17.3096443 19.48,17.3096443 C20,17.3296443 20.52,17.1896443 20.96,16.9096443 C21.34,16.6496443 21.54,16.2296443 21.52,15.7896443 Z" id="Path_8491_1_" fill="#FFFFFF"></path>
                <path d="M39.86,22.7896443 L39.86,27.8096443 C39.86,27.8896443 39.8,27.9696443 39.7,27.9696443 L39.7,27.9696443 L36.22,27.9696443 C36.14,27.9696443 36.06,27.9096443 36.06,27.8096443 C36.06,27.8096443 36.06,27.8096443 36.06,27.8096443 L36.06,12.4296443 C36.06,12.3496443 36.12,12.2696443 36.22,12.2696443 L36.22,12.2696443 L42.32,12.2696443 C43.42,12.2496443 44.5,12.4696443 45.5,12.9296443 C46.38,13.3296443 47.12,13.9896443 47.64,14.8096443 C48.16,15.6496443 48.42,16.6096443 48.4,17.5896443 C48.46,19.0096443 47.84,20.3496443 46.76,21.2696443 C45.66,22.1896443 44.16,22.6496443 42.24,22.6496443 L40.02,22.6496443 C39.94,22.6296443 39.86,22.7096443 39.86,22.7896443 C39.86,22.7896443 39.86,22.7896443 39.86,22.7896443 Z M39.86,19.5696443 C39.86,19.6496443 39.92,19.7296443 40.02,19.7296443 L40.02,19.7296443 L42.34,19.7296443 C42.94,19.7696443 43.56,19.5696443 44.02,19.1896443 C44.42,18.7696443 44.64,18.2096443 44.6,17.6296443 C44.64,16.9896443 44.42,16.3696443 44,15.8696443 C43.58,15.4296443 43,15.1696443 42.38,15.2096443 L40.02,15.2096443 C39.94,15.2096443 39.86,15.2696443 39.86,15.3696443 C39.86,15.3696443 39.86,15.3696443 39.86,15.3696443 L39.86,19.5696443 Z" id="Path_8492_1_" fill="#FFFFFF"></path>
                <path d="M34.96,12.2696443 L30.9,12.2696443 C30.86,12.2696443 30.82,12.2896443 30.78,12.3296443 L28.6,16.1296443 C28.56,16.1896443 28.48,16.2096443 28.42,16.1696443 C28.4,16.1496443 28.38,16.1496443 28.38,16.1296443 L26.26,12.4496443 C26.22,12.3896443 26.14,12.3696443 26.08,12.4096443 C26.06,12.4096443 26.04,12.4296443 26.04,12.4496443 L23.8,15.6096443 C23.78,15.6496443 23.76,15.7096443 23.8,15.7496443 L26.3,20.0696443 C26.32,20.1096443 26.32,20.1496443 26.3,20.1896443 L21.92,27.7896443 C21.88,27.8496443 21.9,27.9296443 21.96,27.9696443 C21.98,27.9896443 22,27.9896443 22.02,27.9896443 L26.06,28.0096443 C26.1,28.0096443 26.14,27.9896443 26.18,27.9496443 L28.38,24.1296443 C28.42,24.0696443 28.5,24.0496443 28.56,24.0896443 C28.58,24.1096443 28.6,24.1096443 28.6,24.1296443 L30.8,27.9496443 C30.82,27.9896443 30.86,28.0096443 30.92,28.0096443 L34.96,27.9896443 C35.04,27.9896443 35.08,27.9296443 35.08,27.8696443 C35.08,27.8496443 35.08,27.8296443 35.06,27.8096443 L30.68,20.2096443 C30.66,20.1696443 30.66,20.1296443 30.68,20.0896443 L35.06,12.5096443 C35.1,12.4496443 35.08,12.3696443 35.02,12.3296443 C35,12.2896443 34.98,12.2696443 34.96,12.2696443 Z" id="Path_8493_1_" fill="#FFFFFF"></path>
                <path d="M33,0.147044256 L33,0.147044256 C33.28,0.307044256 33.38,0.667044256 33.22,0.967044256 L15.56,31.5670443 C15.4,31.8470443 15.04,31.9470443 14.74,31.7870443 L14.74,31.7870443 C14.46,31.6270443 14.36,31.2670443 14.52,30.9670443 L32.18,0.367044256 C32.34,0.0670442563 32.72,-0.0329557437 33,0.147044256 Z" id="Rectangle_1241_1_" fill="#7159C1"></path>
            </g>
        </g>
    </g>
</svg>