<?xml version="1.0" encoding="UTF-8"?>
<svg width="65px" height="14px" viewBox="0 0 65 14" version="1.1" xmlns="http://www.w3.org/2000/svg" xmlns:xlink="http://www.w3.org/1999/xlink">
    <!-- Generator: Sketch 60 (88103) - https://sketch.com -->
    <title>Group</title>
    <desc>Created with Sketch.</desc>
    <g id="New" stroke="none" stroke-width="1" fill="none" fill-rule="evenodd">
        <g id="splash" transform="translate(-589.000000, -249.000000)" fill="#E6E6E6" fill-rule="nonzero">
            <g id="Group" transform="translate(589.000000, 249.000000)">
                <path d="M10.8382122,13.8931523 L7.65539187,8.07984486 L1.33993921,8.07984486 L1.33993921,13.8931523 L-2.84217094e-14,13.8931523 L-2.84217094e-14,0.297257009 L10.5131853,0.297257009 C10.6974574,0.292144337 10.8756416,0.363456468 11.0055054,0.494291273 L11.6069645,1.10504438 C11.7295381,1.23498837 11.7936281,1.40941314 11.7843484,1.58780488 L11.7843484,6.78796926 C11.7866322,6.96523324 11.7234763,7.13711568 11.6069645,7.27072976 L11.0055054,7.88148287 C10.8756145,8.01224735 10.6974238,8.08346597 10.5131853,8.07825159 L9.10393891,8.07825159 L12.2963188,13.891559 L10.8382122,13.8931523 Z M1.33993921,1.50787588 L1.33993921,6.86763271 L10.4746813,6.86763271 L10.4746813,1.50787588 L1.33993921,1.50787588 Z" id="Path_11998"></path>
                <path d="M26.1896243,1.50787588 L16.1982346,1.50787588 L16.1982346,6.42470394 L24.8982798,6.42470394 C25.0808056,6.42404156 25.2554993,6.49880047 25.3810403,6.63129781 L25.9824993,7.23222576 C26.1121898,7.351591 26.1870079,7.51909135 26.1893588,7.69533594 L26.1893588,12.6219892 C26.1870707,12.7982476 26.112242,12.9657716 25.9824993,13.0850993 L25.3810403,13.6958524 C25.2542622,13.8254207 25.0795137,13.8967427 24.8982798,13.8928867 L14.8681205,13.8928867 L14.8681205,12.6809401 L24.8589792,12.6809401 L24.8589792,7.61673467 L16.1589339,7.61673467 C15.9777,7.62059066 15.8029515,7.54926867 15.6761734,7.41970041 L15.0946303,6.82833208 C14.9620085,6.70285536 14.8871458,6.52814363 14.8877708,6.34557158 L14.8877708,1.56576466 C14.8838442,1.39216854 14.9516651,1.22463366 15.0752455,1.10265448 L15.676439,0.491901369 C15.803217,0.362333106 15.9779655,0.291011121 16.1591995,0.294867106 L26.1896243,0.294867106 L26.1896243,1.50787588 Z" id="Path_11999"></path>
                <polygon id="Path_12000" points="35.3333949 0.00807869076 33.4992768 0.0569389393 27.4807033 13.9863585 29.4045755 13.9906072"></polygon>
                <path d="M64.3136298,1.7508494 C64.5804092,2.00961192 64.7284818,2.3670616 64.7228344,2.73867617 L64.7228344,7.39792573 C64.7264207,7.76618986 64.5784546,8.11973376 64.3136298,8.3756618 L63.0862816,9.60274445 C62.8275464,9.86940268 62.4702311,10.0174594 62.0987204,10.011949 L54.2367347,10.011949 L54.2367347,13.8931523 L51.5430479,13.8931523 L51.5430479,0.124918415 L62.0987204,0.124918415 C62.4701916,0.119338598 62.8275011,0.267296837 63.0862816,0.533857452 L64.3136298,1.7508494 Z M62.019057,7.55751818 L62.019057,2.56793084 L54.2370002,2.56793084 L54.2370002,7.55751818 L62.019057,7.55751818 Z" id="Path_12001"></path>
                <polygon id="Path_12002" points="49.9789889 0.124918415 47.03569 0.124918415 44.4418481 6.06223525 41.7779024 6.06223525 39.1845916 0.124918415 36.2415583 0.124918415 39.4405768 7.00916811 36.2415583 13.8934178 39.1845916 13.8934178 41.778699 7.95610097 44.4426447 7.95610097 47.0364866 13.8934178 49.9789889 13.8934178 46.7799703 7.00916811"></polygon>
            </g>
        </g>
    </g>
</svg>