<?xml version="1.0" encoding="UTF-8"?>
<svg width="84px" height="60px" viewBox="0 0 84 60" version="1.1" xmlns="http://www.w3.org/2000/svg" xmlns:xlink="http://www.w3.org/1999/xlink">
    <!-- Generator: Sketch 60 (88103) - https://sketch.com -->
    <title>ticket</title>
    <desc>Created with Sketch.</desc>
    <defs>
        <linearGradient x1="0%" y1="50%" x2="100%" y2="50%" id="linearGradient-1">
            <stop stop-color="#7159C1" offset="0%"></stop>
            <stop stop-color="#4D8AD5" offset="50.2%"></stop>
            <stop stop-color="#00F5FF" offset="100%"></stop>
        </linearGradient>
    </defs>
    <g id="App" stroke="none" stroke-width="1" fill="none" fill-rule="evenodd">
        <g id="ticket" fill="url(#linearGradient-1)" fill-rule="nonzero">
            <path d="M10.2846429,60 C5.00616404,59.9259492 0.786236817,55.588522 0.857142857,50.31 L0.857142857,36.080625 L3.63401786,36.110625 C3.66389593,36.1068 3.69413978,36.1068 3.72401786,36.110625 C7.03616628,36.0358146 9.66889739,33.305172 9.62276786,29.9925 C9.67297932,26.6760536 7.03452812,23.9420853 3.71839286,23.874375 L3.63589286,23.874375 L0.859017857,23.91375 L0.859017857,9.69 C0.788106893,4.41219985 5.0069003,0.075075453 10.2846429,0 L73.9371429,0 C79.2134128,0.0771238751 83.4299393,4.41364305 83.3590179,9.69 L83.3590179,24.06 L80.5465179,23.92125 C77.2463195,24.0112168 74.6320434,26.7383213 74.6815179,30.039375 C74.6322928,33.3525503 77.2656514,36.0847122 80.5783929,36.1575 L83.3683929,36.1575 L83.3683929,50.304375 C83.4393255,55.5792894 79.2250651,59.9152038 73.9502679,59.994375 L10.2846429,60 Z M6.34714286,9.695625 L6.34714286,18.579375 C11.5406887,19.9272664 15.1521179,24.6345669 15.1090179,30 C15.1498561,35.3663111 11.5375449,40.0735197 6.34303325,41.4225 L6.34303325,50.304375 C6.31413473,52.5115319 8.07390543,54.3274477 10.2808929,54.3675 L73.9333929,54.3675 C76.1384694,54.3264334 77.8949563,52.5095804 77.8620186,50.304375 L77.8620186,41.4375 C72.7006637,40.0640552 69.1233414,35.3721941 69.1652679,30.031875 C69.1253336,24.6922202 72.7018318,20.00144 77.8620186,18.62625 L77.8620186,9.69 C77.8960268,7.48622074 76.1426256,5.66912052 73.9390179,5.625 L10.2865179,5.625 C8.07878901,5.66505184 6.31871785,7.48211578 6.34901786,9.69 L6.34714286,9.695625 Z M55.2040179,51.07125 L55.2040179,45.44625 L60.6958929,45.44625 L60.6958929,51.07125 L55.2040179,51.07125 Z M55.2040179,41.94375 L55.2040179,36.31875 L60.6958929,36.31875 L60.6958929,41.94375 L55.2040179,41.94375 Z M55.2040179,32.81625 L55.2040179,27.19125 L60.6958929,27.19125 L60.6958929,32.81625 L55.2040179,32.81625 Z M55.2040179,23.68875 L55.2040179,18.06375 L60.6958929,18.06375 L60.6958929,23.68875 L55.2040179,23.68875 Z M55.2040179,14.56125 L55.2040179,8.93625 L60.6958929,8.93625 L60.6958929,14.56125 L55.2040179,14.56125 Z" id="Ingressos"></path>
        </g>
    </g>
</svg>